<svg preserveAspectRatio="none" width="100%" height="100%" overflow="visible" style="display: block;" viewBox="0 0 17.9988 18" fill="none" xmlns="http://www.w3.org/2000/svg">
<g id="Group">
<path id="Vector" d="M8.99933 18C9.7518 18 10.3618 16.8977 10.3618 15.5378C10.3618 14.178 9.7518 13.0757 8.99933 13.0757C8.24686 13.0757 7.63685 14.178 7.63685 15.5378C7.63685 16.8977 8.24686 18 8.99933 18Z" fill="var(--fill-0, #272727)"/>
<path id="Vector_2" d="M3.41315 12.6598C4.3751 11.6977 5.58489 11.35 6.11695 11.8822C6.64902 12.4143 6.30136 13.6254 5.33941 14.5863C4.37746 15.5472 3.16767 15.8961 2.6356 15.364C2.10354 14.8318 2.4512 13.6207 3.41315 12.6598Z" fill="var(--fill-0, #272727)"/>
<path id="Vector_3" d="M2.46184 7.63673C3.82196 7.63673 4.92368 8.24641 4.92368 8.9994C4.92368 9.75238 3.82196 10.362 2.46184 10.362C1.10172 10.362 0 9.75238 0 8.9994C0 8.24641 1.10172 7.63673 2.46184 7.63673Z" fill="var(--fill-0, #272727)"/>
<path id="Vector_4" d="M5.33944 3.41372C6.30139 4.3758 6.64905 5.58574 6.11699 6.11788C5.58492 6.65002 4.37396 6.30231 3.41318 5.34023C2.45241 4.37814 2.10357 3.1682 2.63564 2.63606C3.16771 2.10391 4.37866 2.45163 5.33944 3.41372Z" fill="var(--fill-0, #272727)"/>
<path id="Vector_5" d="M8.99933 4.92436C9.7518 4.92436 10.3618 3.822 10.3618 2.46218C10.3618 1.10235 9.7518 0 8.99933 0C8.24686 0 7.63685 1.10235 7.63685 2.46218C7.63685 3.822 8.24686 4.92436 8.99933 4.92436Z" fill="var(--fill-0, #272727)"/>
<path id="Vector_6" d="M14.5855 5.34023C13.6235 6.30231 12.4137 6.65002 11.8817 6.11788C11.3496 5.58574 11.6973 4.37462 12.6592 3.41372C13.6212 2.45163 14.831 2.10391 15.363 2.63606C15.8951 3.1682 15.5474 4.37932 14.5855 5.34023Z" fill="var(--fill-0, #272727)"/>
<path id="Vector_7" d="M15.5369 10.362C14.1768 10.362 13.0751 9.75238 13.0751 8.9994C13.0751 8.24641 14.1768 7.63673 15.5369 7.63673C16.897 7.63673 17.9988 8.24641 17.9988 8.9994C17.9988 9.75238 16.897 10.362 15.5369 10.362Z" fill="var(--fill-0, #272727)"/>
<path id="Vector_8" d="M12.658 14.5863C11.696 13.6242 11.3484 12.4143 11.8804 11.8822C12.4125 11.35 13.6235 11.6977 14.5842 12.6598C15.5462 13.6219 15.8939 14.8318 15.3618 15.364C14.8297 15.8961 13.6188 15.5484 12.658 14.5863Z" fill="var(--fill-0, #272727)"/>
</g>
</svg>
