<svg preserveAspectRatio="none" width="100%" height="100%" overflow="visible" style="display: block;" viewBox="0 0 14.6333 14.6333" fill="none" xmlns="http://www.w3.org/2000/svg">
<g id="elements">
<path id="Vector" d="M12.65 6.65V5.98333C12.65 3.46918 12.65 2.2121 11.823 1.43105C10.996 0.650001 9.66499 0.650001 7.00294 0.650001L6.29706 0.650001C3.63501 0.650001 2.30399 0.65 1.47699 1.43105C0.650002 2.2121 0.650001 3.46918 0.650001 5.98333L0.650001 8.65C0.650001 11.1642 0.650001 12.4212 1.47699 13.2023C2.30399 13.9833 3.63501 13.9833 6.29706 13.9833H6.65" stroke="var(--stroke-0, #454545)" strokeWidth="1.3" strokeLinecap="round"/>
<path id="Vector_2" d="M3.98333 3.98333H9.31667" stroke="var(--stroke-0, #454545)" strokeWidth="1.3" strokeLinecap="round"/>
<path id="Vector_3" d="M3.98333 7.31667H9.31667" stroke="var(--stroke-0, #454545)" strokeWidth="1.3" strokeLinecap="round"/>
<path id="Vector_4" d="M9.54848 13.8871L9.41257 13.2515H9.41257L9.54848 13.8871ZM8.74619 13.0849L9.38182 13.2208L8.74619 13.0849ZM9.33045 11.3911L8.87083 10.9315H8.87083L9.33045 11.3911ZM11.2422 13.3029L10.7826 12.8433H10.7826L11.2422 13.3029ZM13.8475 9.63486L14.4104 9.30986V9.30986L13.8475 9.63486ZM13.4474 11.0977L13.907 11.5573V11.5573L13.4474 11.0977ZM13.8475 10.6487L14.4104 10.9737V10.9737L13.8475 10.6487ZM12.9985 8.78583L13.3235 8.22292V8.22292L12.9985 8.78583ZM11.5357 9.18592L11.9953 9.64554V9.64554L11.5357 9.18592ZM11.9846 8.78583L11.6596 8.22292V8.22292L11.9846 8.78583ZM13.4474 11.0977L12.9878 10.638L10.7826 12.8433L11.2422 13.3029L11.7018 13.7625L13.907 11.5573L13.4474 11.0977ZM9.33045 11.3911L9.79007 11.8508L11.9953 9.64554L11.5357 9.18592L11.0761 8.7263L8.87083 10.9315L9.33045 11.3911ZM9.54848 13.8871L9.41257 13.2515C9.29501 13.2767 9.20371 13.2961 9.12579 13.3106C9.04693 13.3253 9.00066 13.3311 8.97352 13.3329C8.94513 13.3347 8.96505 13.3299 9.00915 13.3412C9.06405 13.3554 9.13116 13.3881 9.18822 13.4451L8.7286 13.9047L8.26898 14.3644C8.5301 14.6255 8.85364 14.6431 9.05603 14.6302C9.24676 14.6181 9.4755 14.5674 9.68439 14.5228L9.54848 13.8871ZM8.74619 13.0849L8.11056 12.9489C8.06589 13.1578 8.01522 13.3866 8.00309 13.5773C7.99022 13.7797 8.00786 14.1032 8.26898 14.3644L8.7286 13.9047L9.18822 13.4451C9.24527 13.5022 9.27795 13.5693 9.29211 13.6242C9.30348 13.6683 9.29867 13.6882 9.30047 13.6598C9.3022 13.6327 9.30806 13.5864 9.32273 13.5075C9.33721 13.4296 9.35668 13.3383 9.38182 13.2208L8.74619 13.0849ZM13.4474 9.18592L12.9878 9.64554C13.2396 9.89736 13.2714 9.93706 13.2846 9.95986L13.8475 9.63486L14.4104 9.30986C14.2901 9.10148 14.0997 8.91894 13.907 8.7263L13.4474 9.18592ZM13.4474 11.0977L13.907 11.5573C14.0997 11.3646 14.2901 11.1821 14.4104 10.9737L13.8475 10.6487L13.2846 10.3237C13.2714 10.3465 13.2396 10.3862 12.9878 10.638L13.4474 11.0977ZM13.8475 9.63486L13.2846 9.95986C13.3496 10.0724 13.3496 10.2111 13.2846 10.3237L13.8475 10.6487L14.4104 10.9737C14.7076 10.4589 14.7076 9.82466 14.4104 9.30986L13.8475 9.63486ZM13.4474 9.18592L13.907 8.7263C13.7144 8.53366 13.5319 8.34323 13.3235 8.22292L12.9985 8.78583L12.6735 9.34875C12.6963 9.36191 12.736 9.39371 12.9878 9.64554L13.4474 9.18592ZM11.5357 9.18592L11.9953 9.64554C12.2471 9.39372 12.2868 9.36191 12.3096 9.34875L11.9846 8.78583L11.6596 8.22292C11.4512 8.34323 11.2687 8.53366 11.0761 8.7263L11.5357 9.18592ZM12.9985 8.78583L13.3235 8.22292C12.8087 7.9257 12.1744 7.9257 11.6596 8.22292L11.9846 8.78583L12.3096 9.34875C12.4222 9.28375 12.5609 9.28375 12.6735 9.34875L12.9985 8.78583ZM11.2422 13.3029L10.7826 12.8433C10.6792 12.9466 10.5305 13.0218 10.2899 13.0833C10.1693 13.1141 10.0391 13.1383 9.88866 13.1642C9.74594 13.1889 9.5759 13.2166 9.41257 13.2515L9.54848 13.8871L9.68439 14.5228C9.81517 14.4948 9.94883 14.4731 10.11 14.4453C10.2635 14.4187 10.4373 14.3873 10.6115 14.3429C10.9605 14.2538 11.3646 14.0997 11.7018 13.7625L11.2422 13.3029ZM8.74619 13.0849L9.38182 13.2208C9.41675 13.0574 9.44444 12.8874 9.4691 12.7447C9.49508 12.5943 9.51928 12.464 9.55007 12.3434C9.61151 12.1028 9.68669 11.9541 9.79007 11.8508L9.33045 11.3911L8.87083 10.9315C8.53364 11.2687 8.37959 11.6728 8.29048 12.0218C8.246 12.196 8.21459 12.3699 8.18808 12.5233C8.16023 12.6845 8.13852 12.8182 8.11056 12.9489L8.74619 13.0849Z" fill="var(--stroke-0, #454545)"/>
</g>
</svg>
